<svg xmlns="http://www.w3.org/2000/svg" viewBox="280 215 830 270">
<g>
<path d="M 285.46 473.41 C286.13,468.89 292.66,441.18 294.98,433.00 C295.52,431.08 297.30,423.88 298.92,417.00 C300.55,410.12 303.53,397.75 305.54,389.50 C307.55,381.25 309.79,371.80 310.51,368.50 C311.24,365.20 312.78,358.90 313.94,354.51 C315.51,348.52 315.79,345.89 315.05,344.01 C314.14,341.74 299.43,284.04 288.52,240.00 C286.14,230.38 283.87,221.71 283.49,220.75 C282.82,219.09 302.74,219.00 693.51,219.00 L 1104.23 219.00 L 1103.75 221.75 C1103.19,224.91 1074.62,337.72 1073.04,343.00 C1072.16,345.93 1072.55,348.85 1075.49,361.00 C1083.05,392.29 1091.04,425.56 1096.38,448.00 C1099.46,460.92 1102.42,472.82 1102.97,474.43 C1103.52,476.05 1103.85,477.48 1103.71,477.62 C1103.58,477.76 1097.17,476.55 1089.48,474.94 C1081.79,473.33 1073.03,471.58 1070.00,471.06 C1066.97,470.53 1059.55,469.16 1053.50,468.01 C1034.98,464.48 1009.69,460.17 980.50,455.55 C945.96,450.09 867.04,441.12 839.50,439.52 C833.45,439.17 824.22,438.47 819.00,437.96 C800.34,436.14 731.86,433.91 694.95,433.91 C661.26,433.92 613.08,435.12 591.50,436.49 C528.56,440.49 458.13,447.71 412.00,454.90 C380.17,459.87 372.36,461.15 356.97,463.95 C347.91,465.60 337.35,467.46 333.50,468.08 C329.65,468.71 325.15,469.58 323.50,470.03 C321.85,470.47 318.25,471.13 315.50,471.48 C312.75,471.84 309.15,472.53 307.50,473.01 C305.85,473.50 300.67,474.66 296.00,475.58 C291.33,476.51 286.88,477.50 286.11,477.79 C284.99,478.22 284.86,477.39 285.46,473.41 ZM 353.00 433.09 C354.92,432.60 363.25,430.96 371.50,429.46 C379.75,427.95 386.86,426.40 387.30,426.01 C387.74,425.62 386.73,421.85 385.05,417.62 L 382.00 409.95 L 382.00 388.15 L 382.00 366.35 L 395.75 359.21 C427.10,342.94 425.37,344.04 432.81,335.59 L 439.77 327.68 L 440.41 319.09 C440.76,314.36 440.99,301.76 440.92,291.08 L 440.80 271.66 L 433.16 263.58 C428.96,259.14 424.84,254.95 424.01,254.28 C422.88,253.37 411.50,253.06 378.25,253.03 C353.91,253.01 334.00,253.26 334.00,253.57 C334.00,253.89 336.39,257.60 339.31,261.82 C342.24,266.05 345.89,271.66 347.44,274.30 L 350.25 279.11 L 363.55 278.80 C370.86,278.64 376.76,278.57 376.67,278.65 C374.88,280.23 364.33,287.57 359.01,290.93 L 352.00 295.36 L 352.00 355.13 L 352.00 414.90 L 349.40 423.13 C347.97,427.65 346.57,431.95 346.29,432.68 C345.70,434.24 347.99,434.38 353.00,433.09 ZM 1030.73 425.77 L 1039.00 417.54 L 1039.00 374.94 C1039.00,351.51 1038.81,332.15 1038.59,331.92 C1038.36,331.69 1028.91,331.63 1017.59,331.79 L 997.00 332.08 L 997.00 346.04 C997.00,361.94 996.84,361.71 1005.42,358.04 L 1010.00 356.07 L 1010.00 379.57 C1010.00,399.83 1009.79,403.14 1008.46,403.66 C1007.61,403.98 1002.32,403.50 996.71,402.58 C988.95,401.32 986.08,400.42 984.75,398.85 C983.13,396.93 983.00,392.60 983.00,339.58 C983.00,291.75 983.23,282.06 984.42,280.44 C985.70,278.69 986.89,278.53 996.66,278.82 C1002.60,279.00 1008.04,279.62 1008.74,280.20 C1010.65,281.79 1010.24,297.16 1008.05,305.50 C1007.04,309.35 1006.54,312.62 1006.93,312.77 C1007.32,312.93 1014.70,309.68 1023.32,305.57 L 1039.00 298.09 L 1039.00 284.42 L 1039.00 270.74 L 1030.32 261.87 L 1021.64 253.00 L 996.43 253.00 L 971.23 253.00 L 962.62 262.25 L 954.02 271.50 L 954.01 337.79 L 954.00 404.08 L 962.62 413.91 L 971.24 423.74 L 979.37 425.40 C983.84,426.31 991.10,427.70 995.50,428.49 C999.90,429.28 1007.33,430.79 1012.00,431.85 C1016.67,432.91 1020.94,433.83 1021.48,433.89 C1022.02,433.95 1026.18,430.30 1030.73,425.77 ZM 938.02 345.75 L 938.04 273.50 L 941.52 263.58 C943.43,258.13 945.00,253.52 945.00,253.33 C945.00,253.15 935.78,253.00 924.50,253.00 C913.22,253.00 904.00,253.19 904.00,253.42 C904.00,253.66 905.46,257.37 907.25,261.67 L 910.50 269.50 L 910.79 305.95 C910.94,326.00 910.82,342.15 910.51,341.84 C909.99,341.32 892.56,291.04 889.58,281.50 C888.90,279.30 888.05,276.83 887.69,276.00 C886.98,274.33 880.00,253.73 880.00,253.28 C880.00,253.13 872.12,253.00 862.50,253.00 C852.35,253.00 845.00,253.39 845.00,253.93 C845.00,254.44 846.35,258.52 848.00,263.00 L 851.00 271.14 L 851.00 330.89 L 851.00 390.65 L 848.50 398.00 C844.66,409.28 844.08,408.60 858.25,409.40 C864.99,409.79 873.64,410.50 877.48,410.98 C881.33,411.47 884.59,411.74 884.74,411.59 C884.89,411.44 883.44,407.08 881.51,401.91 L 878.01 392.50 L 878.00 357.08 C878.00,337.60 878.34,322.00 878.75,322.42 C879.45,323.12 892.55,360.66 899.01,380.50 C900.62,385.45 903.85,395.20 906.19,402.17 L 910.45 414.83 L 920.48 415.99 C925.99,416.63 930.95,417.31 931.50,417.50 C932.05,417.69 933.74,417.88 935.25,417.92 L 938.00 418.00 L 938.02 345.75 ZM 465.00 415.44 C488.03,412.64 510.76,410.35 525.75,409.32 L 534.00 408.75 L 534.00 392.37 C534.00,383.37 533.64,376.00 533.20,376.00 C532.75,376.00 530.39,377.25 527.95,378.77 C520.01,383.71 517.77,384.26 498.00,386.05 C487.27,387.03 478.38,387.71 478.23,387.56 C478.08,387.41 479.54,385.57 481.48,383.45 L 485.00 379.61 L 485.00 361.30 L 485.00 343.00 L 496.25 343.02 C505.29,343.04 508.36,343.43 511.86,345.02 C519.30,348.40 519.00,349.06 519.00,329.50 C519.00,319.88 518.82,312.00 518.60,312.00 C518.38,312.00 515.64,313.35 512.50,315.00 C507.18,317.80 506.07,318.00 495.90,318.00 L 485.00 318.00 L 485.00 302.29 L 485.00 286.58 L 481.30 282.79 L 477.59 279.00 L 481.05 278.96 C482.95,278.94 492.53,278.95 502.36,279.00 L 520.21 279.08 L 527.11 282.55 L 534.00 286.03 L 534.00 269.51 L 534.00 253.00 L 491.50 253.00 C468.12,253.00 449.00,253.18 449.00,253.40 C449.00,253.62 450.58,257.88 452.50,262.86 L 456.00 271.92 L 455.99 334.21 L 455.98 396.50 L 452.49 406.49 C450.57,411.98 449.00,416.60 449.00,416.74 C449.00,417.24 452.58,416.95 465.00,415.44 ZM 841.00 406.61 C841.00,405.85 839.25,401.68 837.12,397.36 C834.99,393.04 832.71,386.80 832.05,383.50 C831.39,380.20 830.23,375.02 829.47,372.00 C828.18,366.88 825.84,355.55 823.90,345.00 C823.13,340.78 819.18,321.78 812.06,288.00 C810.38,280.02 808.81,273.00 808.58,272.38 C808.24,271.46 810.21,263.01 812.71,254.75 C813.20,253.11 811.54,253.00 787.51,253.00 C767.36,253.00 761.88,253.27 762.23,254.25 C762.48,254.94 763.51,258.75 764.53,262.72 C766.36,269.90 766.36,270.01 764.08,281.72 C760.31,301.10 758.58,309.64 751.58,343.50 C749.65,352.85 747.14,365.00 746.00,370.50 C743.03,384.90 742.18,387.68 738.46,395.21 C736.63,398.92 735.44,402.16 735.83,402.40 C736.22,402.64 744.99,403.16 755.32,403.56 L 774.11 404.29 L 773.42 401.39 C773.04,399.80 772.39,397.83 771.98,397.00 C770.47,393.96 769.89,387.12 770.83,383.36 C771.36,381.24 772.08,378.26 772.42,376.75 L 773.04 374.00 L 787.48 374.00 L 801.92 374.00 L 802.92 377.75 C805.39,387.04 804.98,394.07 801.42,403.34 C800.85,404.82 803.79,405.23 824.49,406.57 C829.44,406.89 833.68,407.35 833.91,407.58 C834.14,407.81 835.83,408.00 837.67,408.00 C839.84,408.00 841.00,407.52 841.00,406.61 ZM 589.00 405.04 L 609.50 404.00 L 618.25 395.05 L 627.00 386.11 L 627.00 328.10 C627.00,295.77 627.40,269.08 627.91,267.80 C628.41,266.53 629.76,263.17 630.91,260.31 C632.06,257.46 633.00,254.65 633.00,254.06 C633.00,253.34 626.06,253.00 611.59,253.00 L 590.19 253.00 L 593.59 261.08 L 597.00 269.16 L 596.98 322.83 C596.98,354.88 596.59,377.10 596.02,378.00 C594.76,379.99 577.68,380.81 575.47,378.98 C573.25,377.13 573.53,355.79 575.91,346.00 C576.91,341.88 577.39,338.37 576.98,338.20 C576.56,338.04 574.49,338.89 572.36,340.10 C570.24,341.30 564.22,344.53 559.00,347.27 C543.24,355.55 545.00,352.41 545.01,372.27 L 545.02 389.50 L 553.74 398.33 C561.66,406.34 562.75,407.11 565.48,406.62 C567.14,406.32 577.72,405.61 589.00,405.04 ZM 722.25 393.21 L 730.00 385.23 L 730.00 327.68 L 730.00 270.14 L 733.00 262.00 C734.65,257.52 736.00,253.67 736.00,253.43 C736.00,253.19 726.55,253.00 715.00,253.00 C703.45,253.00 694.00,253.24 694.00,253.54 C694.00,253.83 695.58,258.15 697.50,263.14 L 701.00 272.20 L 700.97 322.85 C700.94,363.73 700.68,373.84 699.59,375.28 C697.79,377.65 680.28,378.30 677.62,376.10 C676.07,374.81 675.96,370.37 676.22,321.00 C676.41,284.66 676.85,266.85 677.57,265.90 C678.17,265.13 679.21,262.54 679.90,260.15 C680.58,257.75 681.38,255.16 681.68,254.40 C682.13,253.23 678.76,253.00 661.11,253.00 C649.50,253.00 640.00,253.36 640.00,253.80 C640.00,254.24 640.40,255.03 640.88,255.55 C641.37,256.07 642.94,260.19 644.38,264.70 L 647.00 272.91 L 647.00 329.23 L 647.00 385.54 L 655.25 393.75 L 663.50 401.96 L 687.50 402.23 C700.70,402.38 712.17,402.20 713.00,401.84 C713.83,401.48 717.99,397.59 722.25,393.21 ZM 382.00 308.14 L 382.00 278.11 L 395.25 278.64 C402.53,278.93 409.06,279.63 409.75,280.21 C410.67,280.97 411.00,286.39 411.00,300.97 C411.00,323.80 412.30,321.01 398.00,328.99 C392.77,331.91 387.04,335.16 385.25,336.23 L 382.00 338.16 L 382.00 308.14 ZM 777.42 345.75 C777.79,343.96 779.92,331.92 782.15,319.00 C784.39,306.08 786.55,293.92 786.95,292.00 C787.64,288.70 787.72,288.64 788.32,291.00 C788.67,292.38 789.41,296.65 789.96,300.50 C791.34,310.10 794.75,331.32 795.99,338.00 C796.56,341.02 797.23,344.74 797.48,346.25 L 797.95 349.00 L 787.35 349.00 L 776.75 349.00 L 777.42 345.75 Z" fill="rgba(0,0,0,1)"/>
</g>
</svg>
